<svg width="21" height="24" viewBox="0 0 21 24" fill="none" xmlns="http://www.w3.org/2000/svg">
<path d="M0 4.5C0 3.67172 0.671719 3 1.5 3H19.5C20.3297 3 21 3.67172 21 4.5C21 5.32969 20.3297 6 19.5 6H1.5C0.671719 6 0 5.32969 0 4.5ZM0 12C0 11.1703 0.671719 10.5 1.5 10.5H19.5C20.3297 10.5 21 11.1703 21 12C21 12.8297 20.3297 13.5 19.5 13.5H1.5C0.671719 13.5 0 12.8297 0 12ZM19.5 21H1.5C0.671719 21 0 20.3297 0 19.5C0 18.6703 0.671719 18 1.5 18H19.5C20.3297 18 21 18.6703 21 19.5C21 20.3297 20.3297 21 19.5 21Z" fill="#A8AAAE"/>
</svg>
