<svg width="30" height="30" viewBox="0 0 30 30" fill="none" xmlns="http://www.w3.org/2000/svg">
<path fill-rule="evenodd" clip-rule="evenodd" d="M16.7676 15.0001L22.1338 9.63382C22.6226 9.14507 22.6226 8.35507 22.1338 7.86632C21.6451 7.37757 20.8551 7.37757 20.3663 7.86632L15.0001 13.2326L9.63382 7.86632C9.14507 7.37757 8.35507 7.37757 7.86632 7.86632C7.37757 8.35507 7.37757 9.14507 7.86632 9.63382L13.2326 15.0001L7.86632 20.3663C7.37757 20.8551 7.37757 21.6451 7.86632 22.1338C8.11007 22.3776 8.43007 22.5001 8.75007 22.5001C9.07007 22.5001 9.39007 22.3776 9.63382 22.1338L15.0001 16.7676L20.3663 22.1338C20.6101 22.3776 20.9301 22.5001 21.2501 22.5001C21.5701 22.5001 21.8901 22.3776 22.1338 22.1338C22.6226 21.6451 22.6226 20.8551 22.1338 20.3663L16.7676 15.0001Z" fill="white"/>
<mask id="mask0_66_1757" style="mask-type:luminance" maskUnits="userSpaceOnUse" x="7" y="7" width="16" height="16">
<path fill-rule="evenodd" clip-rule="evenodd" d="M16.7676 15.0001L22.1338 9.63382C22.6226 9.14507 22.6226 8.35507 22.1338 7.86632C21.6451 7.37757 20.8551 7.37757 20.3663 7.86632L15.0001 13.2326L9.63382 7.86632C9.14507 7.37757 8.35507 7.37757 7.86632 7.86632C7.37757 8.35507 7.37757 9.14507 7.86632 9.63382L13.2326 15.0001L7.86632 20.3663C7.37757 20.8551 7.37757 21.6451 7.86632 22.1338C8.11007 22.3776 8.43007 22.5001 8.75007 22.5001C9.07007 22.5001 9.39007 22.3776 9.63382 22.1338L15.0001 16.7676L20.3663 22.1338C20.6101 22.3776 20.9301 22.5001 21.2501 22.5001C21.5701 22.5001 21.8901 22.3776 22.1338 22.1338C22.6226 21.6451 22.6226 20.8551 22.1338 20.3663L16.7676 15.0001Z" fill="white"/>
</mask>
<g mask="url(#mask0_66_1757)">
</g>
</svg>
