<svg width="20" height="16" viewBox="0 0 20 16" fill="none" xmlns="http://www.w3.org/2000/svg">
<g clip-path="url(#clip0_106_267)">
<path d="M8.58438 9.5H5.41563C2.42531 9.5 0 11.925 0 14.9156C0 15.5156 0.485 16 1.08312 16H12.9156C13.5156 16 14 15.5156 14 14.9156C14 11.925 11.575 9.5 8.58438 9.5ZM7 8C9.20937 8 11 6.20906 11 4C11 1.79094 9.20937 0 7 0C4.79063 0 3 1.79094 3 4C3 6.20906 4.79063 8 7 8ZM19.7594 4.2C19.4562 3.91875 18.9809 3.93584 18.6994 4.23956L15.9791 7.16925L14.7794 5.96956C14.4864 5.67659 14.0119 5.67659 13.7188 5.96956C13.4256 6.26253 13.4258 6.73706 13.7188 7.03019L15.4688 8.78019C15.6094 8.92188 15.8 9 16 9H16.0137C16.2178 8.99609 16.4112 8.90966 16.5499 8.76025L19.7999 5.26025C20.0812 4.95625 20.0625 4.48125 19.7594 4.2Z" fill="#FFD600"/>
</g>
<defs>
<clipPath id="clip0_106_267">
<rect width="20" height="16" fill="white"/>
</clipPath>
</defs>
</svg>
