<svg width="17" height="17" viewBox="0 0 17 17" fill="none" xmlns="http://www.w3.org/2000/svg">
<path d="M1.59375 2.125C0.713867 2.125 0 2.83887 0 3.71875C0 4.22012 0.235742 4.6916 0.6375 4.99375L7.8625 10.4125C8.24102 10.6947 8.75898 10.6947 9.1375 10.4125L16.3625 4.99375C16.7643 4.6916 17 4.22012 17 3.71875C17 2.83887 16.2861 2.125 15.4062 2.125H1.59375ZM0 5.84375V12.75C0 13.9221 0.95293 14.875 2.125 14.875H14.875C16.0471 14.875 17 13.9221 17 12.75V5.84375L9.775 11.2625C9.01797 11.8303 7.98203 11.8303 7.225 11.2625L0 5.84375Z" fill="#A8AAAE"/>
</svg>
