<svg width="16" height="16" viewBox="0 0 16 16" fill="none" xmlns="http://www.w3.org/2000/svg">
<path d="M14.2222 0H1.77778C0.8 0 0 0.8 0 1.77778V14.2222C0 15.2 0.8 16 1.77778 16H14.2222C15.2 16 16 15.2 16 14.2222V1.77778C16 0.8 15.2 0 14.2222 0ZM3.55556 3.55556H5.33333V5.33333H3.55556V3.55556ZM3.55556 7.11111H5.33333V8.88889H3.55556V7.11111ZM3.55556 10.6667H5.33333V12.4444H3.55556V10.6667ZM12.4444 12.4444H7.11111V10.6667H12.4444V12.4444ZM12.4444 8.88889H7.11111V7.11111H12.4444V8.88889ZM12.4444 5.33333H7.11111V3.55556H12.4444V5.33333Z" fill="#FFD600"/>
</svg>
