<svg width="22" height="22" viewBox="0 0 22 22" fill="none" xmlns="http://www.w3.org/2000/svg">
<path d="M19.1667 0.5H2.83333C1.55 0.5 0.5 1.55 0.5 2.83333V11C0.5 12.2833 1.55 13.3333 2.83333 13.3333H19.1667C20.45 13.3333 21.5 12.2833 21.5 11V2.83333C21.5 1.55 20.45 0.5 19.1667 0.5ZM19.1667 7.5H14.5C14.5 9.39 12.89 11 11 11C9.11 11 7.5 9.39 7.5 7.5H2.83333V2.83333H19.1667V7.5ZM14.5 15.6667H21.5V19.1667C21.5 20.45 20.45 21.5 19.1667 21.5H2.83333C1.55 21.5 0.5 20.45 0.5 19.1667V15.6667H7.5C7.5 17.6033 9.06333 19.1667 11 19.1667C12.9367 19.1667 14.5 17.6033 14.5 15.6667Z" fill="#A8AAAE"/>
</svg>
