<svg width="24" height="24" viewBox="0 0 24 24" fill="none" xmlns="http://www.w3.org/2000/svg">
<path d="M1.5 24.0005H22.5V21.0005H1.5V24.0005ZM19.4578 11.9583H16.3828C15.6141 11.9583 15 11.3864 15 10.6177V10.1771C15.0001 8.89691 15.4126 7.67535 16.0041 6.54003C16.4395 5.70425 16.6153 4.71894 16.4247 3.67316C16.0942 1.86144 14.6087 0.375497 12.7933 0.0670595C9.95625 -0.413925 7.5 1.75737 7.5 4.50003C7.5 5.16238 7.64531 5.78909 7.90898 6.35769C8.53594 7.71613 9.00938 9.1505 8.95781 10.6505C8.99531 11.4005 8.36719 11.9583 7.61719 11.9583H4.5C2.01469 11.9583 0 13.9739 0 16.4583V19.4583H24V16.4583C24 13.9739 21.9844 11.9583 19.4578 11.9583Z" fill="#A8AAAE"/>
</svg>
