<svg width="27" height="22" viewBox="0 0 27 22" fill="none" xmlns="http://www.w3.org/2000/svg">
<g clip-path="url(#clip0_66_1562)">
<path d="M16.2002 1.34007H21.6002C22.3469 1.34007 22.9502 1.93892 22.9502 2.68015C22.9502 3.42138 22.3469 4.02022 21.6002 4.02022H16.8077C16.5883 5.10065 15.8416 5.99264 14.8502 6.41979V18.761H21.6002C22.3469 18.761 22.9502 19.3599 22.9502 20.1011C22.9502 20.8423 22.3469 21.4412 21.6002 21.4412H13.5002H5.40021C4.65349 21.4412 4.05021 20.8423 4.05021 20.1011C4.05021 19.3599 4.65349 18.761 5.40021 18.761H12.1502V6.41979C11.1588 5.98845 10.4121 5.09647 10.1927 4.02022H5.40021C4.65349 4.02022 4.05021 3.42138 4.05021 2.68015C4.05021 1.93892 4.65349 1.34007 5.40021 1.34007H10.8002C11.4161 0.527654 12.3949 0 13.5002 0C14.6055 0 15.5843 0.527654 16.2002 1.34007ZM18.5458 13.4007H24.6546L21.6002 8.19957L18.5458 13.4007ZM21.6002 17.421C18.9466 17.421 16.7402 15.9971 16.2846 14.1168C16.1749 13.6562 16.3268 13.183 16.5672 12.7726L20.5835 5.9382C20.7944 5.57806 21.1826 5.36029 21.6002 5.36029C22.0179 5.36029 22.406 5.58224 22.6169 5.9382L26.6332 12.7726C26.8736 13.183 27.0255 13.6562 26.9158 14.1168C26.4602 15.9971 24.2538 17.421 21.6002 17.421ZM5.34958 8.19957L2.29521 13.4007H8.40818L5.34958 8.19957ZM0.0381784 14.1168C-0.0715091 13.6562 0.0803659 13.183 0.320835 12.7726L4.33708 5.9382C4.54802 5.57806 4.93615 5.36029 5.3538 5.36029C5.77146 5.36029 6.15958 5.58224 6.37052 5.9382L10.3868 12.7726C10.6272 13.183 10.7791 13.6562 10.6694 14.1168C10.2096 15.9971 8.00318 17.421 5.34958 17.421C2.69599 17.421 0.493803 15.9971 0.0381784 14.1168Z" fill="#A8AAAE"/>
</g>
<defs>
<clipPath id="clip0_66_1562">
<rect width="27" height="21.4412" fill="white"/>
</clipPath>
</defs>
</svg>
