<svg width="21" height="16" viewBox="0 0 21 16" fill="none" xmlns="http://www.w3.org/2000/svg">
<g clip-path="url(#clip0_106_263)">
<path d="M12.0889 1H16.1185C16.6757 1 17.1259 1.44687 17.1259 2C17.1259 2.55313 16.6757 3 16.1185 3H12.5422C12.3785 3.80625 11.8213 4.47188 11.0815 4.79063V14H16.1185C16.6757 14 17.1259 14.4469 17.1259 15C17.1259 15.5531 16.6757 16 16.1185 16H10.0741H4.02963C3.4724 16 3.02222 15.5531 3.02222 15C3.02222 14.4469 3.4724 14 4.02963 14H9.06666V4.79063C8.32685 4.46875 7.76963 3.80313 7.60592 3H4.02963C3.4724 3 3.02222 2.55313 3.02222 2C3.02222 1.44687 3.4724 1 4.02963 1H8.05925C8.51888 0.39375 9.24925 0 10.0741 0C10.8989 0 11.6293 0.39375 12.0889 1ZM13.8393 10H18.3978L16.1185 6.11875L13.8393 10ZM16.1185 13C14.1383 13 12.4918 11.9375 12.1518 10.5344C12.07 10.1906 12.1833 9.8375 12.3628 9.53125L15.3598 4.43125C15.5172 4.1625 15.8068 4 16.1185 4C16.4302 4 16.7198 4.16563 16.8772 4.43125L19.8743 9.53125C20.0537 9.8375 20.167 10.1906 20.0852 10.5344C19.7452 11.9375 18.0987 13 16.1185 13ZM3.99185 6.11875L1.71259 10H6.27426L3.99185 6.11875ZM0.0283291 10.5344C-0.0535228 10.1906 0.0598106 9.8375 0.239255 9.53125L3.23629 4.43125C3.3937 4.1625 3.68333 4 3.995 4C4.30666 4 4.59629 4.16563 4.7537 4.43125L7.75074 9.53125C7.93018 9.8375 8.04351 10.1906 7.96166 10.5344C7.61851 11.9375 5.97203 13 3.99185 13C2.01166 13 0.368329 11.9375 0.0283291 10.5344Z" fill="#FFD600"/>
</g>
<defs>
<clipPath id="clip0_106_263">
<rect width="20.1481" height="16" fill="white"/>
</clipPath>
</defs>
</svg>
